<?xml version="1.0" standalone="no"?><!DOCTYPE svg PUBLIC "-//W3C//DTD SVG 1.1//EN" "http://www.w3.org/Graphics/SVG/1.1/DTD/svg11.dtd"><svg class="icon" width="200px" height="200.00px" viewBox="0 0 1024 1024" version="1.1" xmlns="http://www.w3.org/2000/svg"><path fill="#000" d="M987.474871 36.471994c-48.707236-48.629326-127.592435-48.629326-176.299671 0L43.078491 804.586511a17.814726 17.814726 0 0 0-4.879405 9.099913L0.428217 1002.629809a17.805822 17.805822 0 0 0 17.451886 21.369657 16.64162 16.64162 0 0 0 3.56161-0.356161l188.818729-37.895525a17.814726 17.814726 0 0 0 9.099912-4.879406L987.474871 212.753858c48.61597-48.70501 48.61597-127.576853 0-176.281864zM723.043172 174.982989l50.378967 50.361158L168.981387 829.784899l-50.361158-50.378967L723.043172 174.982989zM40.638788 983.361501l25.964134-130.052171 104.034614 104.034614-129.998748 26.017557z m166.113468-40.263995l-125.902896-125.902897 12.590289-12.608098 125.920705 125.920705-12.608098 12.59029z m37.788677-37.770869L194.161967 854.965478 798.602718 250.524727l50.361159 50.468006-604.422944 604.333904z m629.656947-629.603523L748.223751 149.766793l12.59029-12.590289 125.974129 125.95632-12.59029 12.59029z m88.149836-88.149836l-50.414583 50.378967-125.938513-125.938513 50.378967-50.361158c34.923807-34.618845 91.30186-34.371758 125.920704 0.552049 34.405148 34.707885 34.405148 90.66077 0 125.368655h0.053425z" /></svg>